# xmcd
#
# Track frame offsets: 
#        150
#        22162
#        44225
#        64687
#
# Disc length: 1154 seconds
#
# Revision: 1
# Processed by: cddbd v1.5.2PL0 Copyright (c) Steve Scherf et al.
# Submitted via: ExactAudioCopy v0.99pb5
#
DISCID=38048004
DTITLE=RING(ªL·®²[) - PRIVATE PARADISE
DYEAR=1998
DGENRE=Other
TTITLE0=PRIVATE PARADISE (MANDARIN VERSION)
TTITLE1=PRIVATE PARADISE (JAPANESE VERSION)
TTITLE2=PRIVATE PARADISE (TK PIANO VERSION)
TTITLE3=PRIVATE PARADISE TV MIX (JAPANESE VERSION)
EXTD=YEAR: 1998
EXTT0=
EXTT1=
EXTT2=
EXTT3=
PLAYORDER=
